<?xml version="1.0" encoding="UTF-8"?>
<svg width="121px" height="121px" viewBox="0 0 121 121" version="1.1" xmlns="http://www.w3.org/2000/svg" xmlns:xlink="http://www.w3.org/1999/xlink">
    <title>RetainPDF-logo-1</title>
    <g id="页面-1" stroke="none" stroke-width="1" fill="none" fill-rule="evenodd">
        <g id="RetainPDF-logo-1">
            <rect id="矩形" x="0" y="0" width="121" height="121"></rect>
            <path d="M78.691776,45.1225862 C76.1379867,45.1225862 75.2531677,42.9268822 75.2531677,41.5545672 L75.2531677,26 L31.8758351,26 C28.0186593,26 26,29.0540247 26,31.6239965 L26,89.4109353 C26,93.0039052 29.295554,95 32.0930661,95 L88.3612069,95 C92.218383,95 95,92.4100671 95,89.1314817 L95,44.653504 L78.691776,45.0976351 L78.691776,45.1225862 Z M91.0699415,87.454368 C91.0699415,89.746858 88.8506496,91.011847 87.1700209,91.011847 L34.0470718,91.011847 C31.4884224,91.011847 30.3464567,88.8647581 30.3464567,87.5513022 L30.3464567,34.4314559 C30.3464567,32.4200749 32.0001523,30.8982107 33.9554991,30.8982107 L71.9743367,30.8982107 L71.9743367,43.2039853 C71.9743367,46.8535514 75.47026,48.6225974 78.8584504,48.6225974 L91.0699415,48.6225974 L91.0699415,87.4495214 L91.0699415,87.454368 Z" id="形状" stroke="#000000" stroke-width="0.3" fill="#000000" fill-rule="nonzero"></path>
            <path d="M80.6669677,42 L95,42 L78,26 L78,38.5260546 C78,40.5558313 79.115929,42 80.6669677,42 Z" id="路径" stroke="#000000" stroke-width="0.3" fill="#000000" fill-rule="nonzero"></path>
            <path d="M67.6987767,68.2863713 L60.962433,60.0500415 L60.962433,60.0500415 C64.4685093,58.560232 66.3512365,55.2719139 66.3512365,51.9835957 C66.3512365,47.6439105 63.0732341,43 57.0851777,43 L45,43 C44.4477153,43 44,43.4477153 44,44 L44,69 C44,69.5522847 44.4477153,70 45,70 L49.4531481,70 C50.0054329,70 50.4531481,69.5522847 50.4531481,69 L50.4531481,61.7434963 C50.4531481,61.1912115 50.9008634,60.7434963 51.4531481,60.7434963 L54.0531952,60.7434963 C54.3684085,60.7434963 54.6651708,60.8921178 54.8539719,61.1445332 L61.1174615,69.5184329 C61.3062625,69.7708484 61.6030249,69.9194699 61.9182381,69.9194699 L66.9247055,69.9194699 C67.4769903,69.9194699 67.9247055,69.4717546 67.9247055,68.9194699 C67.9247055,68.6886893 67.8448836,68.4650119 67.6987767,68.2863713 Z M50.2586146,47.8461538 L55.8515131,47.8461538 C58.7607047,47.8461538 59.9942372,50.4578828 59.9942372,52.4007544 C59.9942372,54.6803298 58.2522594,56.8461538 55.9708873,56.8461538 L50.2586146,56.8461538 L50.2586146,47.8461538 L50.2586146,47.8461538 Z" id="形状" stroke="#000000" stroke-width="0.3" fill="#000000" fill-rule="nonzero"></path>
            <line x1="41.3472222" y1="84.5" x2="65.6527778" y2="84.5" id="直线-2" stroke="#000000" stroke-width="3" stroke-linecap="round" stroke-linejoin="round"></line>
            <line x1="41.3490566" y1="76.5" x2="77.6509434" y2="76.5" id="直线-2" stroke="#000000" stroke-width="3" stroke-linecap="round" stroke-linejoin="round"></line>
        </g>
    </g>
</svg>